#N canvas -4 -4 1920 972 10;
#X obj 953 522 dac~;
#X obj 789 156 -~ 0.25;
#X obj 789 134 *~ 2;
#X obj 791 229 *~ 1;
#X obj 790 108 bp~ 130 5;
#X obj 790 71 noise~;
#X obj 789 204 *~ 0.5;
#X obj 891 381 *~;
#X obj 823 381 *~;
#X obj 941 193 hsl 128 15 0 1 0 0 empty empty empty -2 -8 0 10 -262144
-1 -1 4191 1;
#X obj 939 266 cos;
#X obj 939 243 - 0.25;
#X obj 938 219 * 0.25;
#X obj 941 119 loadbang;
#X obj 1154 220 line~;
#X obj 1068 119 loadbang;
#X msg 1189 184 1 1500;
#X obj 944 479 *~;
#X obj 977 480 *~;
#X msg 1098 185 0 2;
#X obj 1182 150 r initRoomtone;
#X obj 1305 147 r stopRoomtone;
#X msg 1253 187 0 2500;
#X msg 939 163 0.33;
#X obj 836 309 cos;
#X obj 846 287 - 0.25;
#X obj 920 446 *~ 0.7;
#X obj 984 446 *~ 0.7;
#X obj 560 167 soundfiler;
#N canvas 0 50 450 250 (subpatch) 0;
#X array sample 75008 float 2;
#X coords 0 1 75008 -1 200 140 1;
#X restore 342 124 graph;
#X obj -35 30 r sample;
#X msg 560 132 read -resize EAU.wav sample;
#X obj -9 205 line~;
#X obj 561 215 s samplesize;
#X obj 90 34 r samplesize;
#X obj -37 62 bng 15 250 50 0 empty empty empty 17 7 0 10 -262144 -1
-1;
#X obj 90 56 / 48000;
#X obj 90 75 * 1000;
#X obj -20 264 *~;
#X msg -8 180 1 \$1;
#X obj 0 155 f;
#X obj -20 370 tabread4~ sample;
#X obj 576 100 loadbang;
#X msg -47 138 0;
#X obj -37 84 t b b;
#X obj 119 340 r pos;
#X text 218 530 * ~M_PI/2;
#X obj 145 522 * 1.5708;
#X obj 86 554 cos;
#X obj 175 556 sin;
#X obj 158 671 *~;
#X obj 67 667 *~;
#X obj 175 640 line~;
#X obj 175 614 pack 0 10;
#X obj 86 643 line~;
#X obj 86 617 pack 0 10;
#X obj 95 713 dac~;
#X connect 1 0 6 0;
#X connect 2 0 1 0;
#X connect 3 0 8 0;
#X connect 3 0 7 0;
#X connect 4 0 2 0;
#X connect 5 0 4 0;
#X connect 6 0 3 0;
#X connect 7 0 27 0;
#X connect 8 0 26 0;
#X connect 9 0 12 0;
#X connect 10 0 7 1;
#X connect 11 0 10 0;
#X connect 11 0 25 0;
#X connect 12 0 11 0;
#X connect 13 0 23 0;
#X connect 14 0 18 1;
#X connect 14 0 17 1;
#X connect 15 0 19 0;
#X connect 16 0 14 0;
#X connect 17 0 0 0;
#X connect 18 0 0 1;
#X connect 19 0 14 0;
#X connect 20 0 16 0;
#X connect 21 0 22 0;
#X connect 22 0 14 0;
#X connect 23 0 9 0;
#X connect 24 0 8 1;
#X connect 25 0 24 0;
#X connect 26 0 17 0;
#X connect 27 0 18 0;
#X connect 28 0 33 0;
#X connect 30 0 35 0;
#X connect 31 0 28 0;
#X connect 32 0 38 0;
#X connect 34 0 36 0;
#X connect 34 0 38 1;
#X connect 35 0 44 0;
#X connect 36 0 37 0;
#X connect 37 0 40 1;
#X connect 38 0 41 0;
#X connect 39 0 32 0;
#X connect 40 0 39 0;
#X connect 41 0 51 0;
#X connect 41 0 50 0;
#X connect 42 0 31 0;
#X connect 43 0 32 0;
#X connect 44 0 40 0;
#X connect 44 1 43 0;
#X connect 45 0 47 0;
#X connect 47 0 48 0;
#X connect 47 0 49 0;
#X connect 48 0 55 0;
#X connect 49 0 53 0;
#X connect 50 0 56 1;
#X connect 51 0 56 0;
#X connect 52 0 50 1;
#X connect 53 0 52 0;
#X connect 54 0 51 1;
#X connect 55 0 54 0;
