#N canvas -8 -8 1920 998 10;
#X obj 563 967 dac~;
#X obj 870 907 line~;
#X obj 784 806 loadbang;
#X msg 905 871 1 1500;
#X obj 554 924 *~;
#X obj 587 925 *~;
#X msg 814 872 0 2;
#X obj 1025 815 r stopRoomtone;
#X msg 969 874 0 2500;
#X obj 1603 154 soundfiler;
#N canvas 0 50 450 250 (subpatch) 0;
#X array amb1L 2.07454e+006 float 2;
#X coords 0 1 2.07454e+006 -1 200 140 1 0 0;
#X restore 1843 51 graph;
#X obj 1602 61 loadbang;
#N canvas 0 50 450 250 (subpatch) 0;
#X array amb2L 2.1609e+006 float 2;
#X coords 0 1 2.1609e+006 -1 200 140 1 0 0;
#X restore 1837 210 graph;
#X obj 1552 175 s samplesizeAmb1;
#N canvas 0 50 450 250 (subpatch) 0;
#X array amb1R 2.07454e+006 float 2;
#X coords 0 1 2.07454e+006 -1 200 140 1 0 0;
#X restore 2047 55 graph;
#N canvas 0 50 450 250 (subpatch) 0;
#X array amb2R 2.1609e+006 float 2;
#X coords 0 1 2.1609e+006 -1 200 140 1 0 0;
#X restore 2045 210 graph;
#X msg 1600 92 read -resize AMBDAY.L.wav amb1L;
#X obj 1606 419 soundfiler;
#X obj 1603 354 loadbang;
#X msg 1601 376 read -resize SHUTDOWN.L.wav SDL;
#X msg 1609 399 read -resize SHUTDOWN.R.wav SDR;
#N canvas 0 50 450 250 (subpatch) 0;
#X array SDL 253575 float 2;
#X coords 0 1 253575 -1 200 140 1 0 0;
#X restore 1838 374 graph;
#N canvas 0 50 450 250 (subpatch) 0;
#X array SDR 253575 float 0;
#X coords 0 1 253574 -1 200 140 1 0 0;
#X restore 2046 374 graph;
#X msg 1608 115 read -resize AMBDAY.R.wav amb1R;
#X obj 1609 136 soundfiler;
#X obj 1689 417 soundfiler;
#X obj 1562 458 s samplesizeSD;
#X obj 1594 293 soundfiler;
#X obj 1593 200 loadbang;
#X obj 1600 275 soundfiler;
#X msg 1591 231 read -resize AMBNIGHT.L.wav amb2L;
#X msg 1599 254 read -resize AMBNIGHT.R.wav amb2R;
#X obj 1543 314 s samplesizeAmb2;
#X obj 919 304 line~;
#X obj 891 161 bng 15 250 50 0 empty empty empty 17 7 0 10 -262144
-1 -1;
#X obj 1018 174 * 1000;
#X obj 908 363 *~;
#X msg 920 279 1 \$1;
#X obj 928 254 f;
#X msg 881 237 0;
#X obj 891 183 t b b;
#X obj 400 380 tabread4~ amb1L;
#X obj 517 380 tabread4~ amb1R;
#X obj 426 103 r samplesizeAmb1;
#X obj 898 837 r InitRoomtone;
#X obj 769 101 r samplesizeAmb2;
#X msg 726 406 0;
#X obj 660 405 *~;
#X obj 778 407 *~;
#X obj 778 384 tabread4~ amb2R;
#X obj 659 384 tabread4~ amb2L;
#X msg 295 467 0 1000;
#X obj 292 510 line~;
#X obj 594 495 line~;
#X obj 429 544 *~;
#X obj 483 544 *~;
#X obj 643 524 *~;
#X obj 697 524 *~;
#X obj 296 425 r Shutdown;
#X obj 199 422 loadbang;
#X msg 727 434 1;
#X obj 728 454 r Shutdown;
#X obj 1018 133 r samplesizeSD;
#X obj 1018 155 / 44100;
#X obj 907 390 tabread4~ SDL;
#X obj 1008 389 tabread4~ SDR;
#X obj 893 129 r Shutdown;
#X msg 594 472 1 3500;
#X obj 433 127 / 44100;
#X obj 418 328 line~;
#X obj 430 154 * 1000;
#X msg 419 303 1 \$1;
#X obj 414 276 f;
#X msg 372 295 0;
#X obj 335 223 metro;
#X obj 335 245 t b b;
#X obj 427 176 t b f f;
#X obj 416 349 *~;
#X msg 261 468 1;
#X obj 556 477 0;
#X obj 400 210 - 1;
#X obj 768 126 / 44100;
#X obj 715 309 line~;
#X obj 765 153 * 1000;
#X msg 716 284 1 \$1;
#X obj 711 257 f;
#X msg 669 276 0;
#X obj 632 204 metro;
#X obj 632 226 t b b;
#X obj 762 175 t b f f;
#X obj 715 329 *~;
#X obj 704 207 - 1;
#X obj 1574 480 loadbang;
#X obj 139 425 r Reset;
#X obj 723 809 r Reset;
#X connect 1 0 5 1;
#X connect 1 0 4 1;
#X connect 2 0 6 0;
#X connect 3 0 1 0;
#X connect 4 0 0 0;
#X connect 5 0 0 1;
#X connect 6 0 1 0;
#X connect 7 0 8 0;
#X connect 8 0 1 0;
#X connect 9 0 13 0;
#X connect 11 0 16 0;
#X connect 11 0 23 0;
#X connect 16 0 9 0;
#X connect 17 0 26 0;
#X connect 18 0 19 0;
#X connect 18 0 20 0;
#X connect 19 0 17 0;
#X connect 20 0 25 0;
#X connect 23 0 24 0;
#X connect 27 0 32 0;
#X connect 28 0 30 0;
#X connect 28 0 31 0;
#X connect 30 0 27 0;
#X connect 31 0 29 0;
#X connect 33 0 36 0;
#X connect 34 0 40 0;
#X connect 35 0 38 1;
#X connect 36 0 64 0;
#X connect 36 0 65 0;
#X connect 37 0 33 0;
#X connect 38 0 37 0;
#X connect 39 0 33 0;
#X connect 40 0 38 0;
#X connect 40 1 39 0;
#X connect 41 0 54 0;
#X connect 42 0 55 0;
#X connect 43 0 68 0;
#X connect 43 0 77 1;
#X connect 44 0 3 0;
#X connect 45 0 81 0;
#X connect 45 0 90 1;
#X connect 46 0 47 1;
#X connect 46 0 48 1;
#X connect 47 0 56 0;
#X connect 48 0 57 0;
#X connect 49 0 48 0;
#X connect 50 0 47 0;
#X connect 51 0 52 0;
#X connect 52 0 54 1;
#X connect 52 0 55 1;
#X connect 53 0 56 1;
#X connect 53 0 57 1;
#X connect 54 0 4 0;
#X connect 55 0 5 0;
#X connect 56 0 4 0;
#X connect 57 0 5 0;
#X connect 58 0 51 0;
#X connect 58 0 67 0;
#X connect 59 0 78 0;
#X connect 59 0 79 0;
#X connect 60 0 47 1;
#X connect 60 0 48 1;
#X connect 61 0 60 0;
#X connect 62 0 36 1;
#X connect 62 0 63 0;
#X connect 63 0 35 0;
#X connect 64 0 0 0;
#X connect 65 0 0 1;
#X connect 66 0 34 0;
#X connect 67 0 53 0;
#X connect 68 0 70 0;
#X connect 69 0 77 0;
#X connect 70 0 76 0;
#X connect 71 0 69 0;
#X connect 72 0 71 0;
#X connect 73 0 69 0;
#X connect 74 0 75 0;
#X connect 75 0 72 0;
#X connect 75 1 73 0;
#X connect 76 0 74 0;
#X connect 76 1 80 0;
#X connect 76 2 72 1;
#X connect 77 0 41 0;
#X connect 77 0 42 0;
#X connect 78 0 52 0;
#X connect 79 0 53 0;
#X connect 80 0 74 1;
#X connect 81 0 83 0;
#X connect 82 0 90 0;
#X connect 83 0 89 0;
#X connect 84 0 82 0;
#X connect 85 0 84 0;
#X connect 86 0 82 0;
#X connect 87 0 88 0;
#X connect 88 0 85 0;
#X connect 88 1 86 0;
#X connect 89 0 87 0;
#X connect 89 1 91 0;
#X connect 89 2 85 1;
#X connect 90 0 50 0;
#X connect 90 0 49 0;
#X connect 91 0 87 1;
#X connect 93 0 78 0;
#X connect 93 0 79 0;
#X connect 94 0 6 0;
