#N canvas -8 -8 1920 998 10;
#X obj 563 967 dac~;
#X obj 870 907 line~;
#X obj 784 806 loadbang;
#X msg 905 871 1 1500;
#X obj 554 924 *~;
#X obj 587 925 *~;
#X msg 814 872 0 2;
#X obj 1025 815 r stopRoomtone;
#X msg 969 874 0 2500;
#X obj 1603 154 soundfiler;
#N canvas 0 50 450 250 (subpatch) 0;
#X array amb1L 2.07454e+006 float 2;
#X coords 0 1 2.07454e+006 -1 200 140 1 0 0;
#X restore 1843 51 graph;
#X obj 1602 61 loadbang;
#N canvas 0 50 450 250 (subpatch) 0;
#X array amb2L 2.1609e+006 float 2;
#X coords 0 1 2.1609e+006 -1 200 140 1 0 0;
#X restore 1837 210 graph;
#X obj 1552 175 s samplesizeAmb1;
#N canvas 0 50 450 250 (subpatch) 0;
#X array amb1R 2.07454e+006 float 2;
#X coords 0 1 2.07454e+006 -1 200 140 1 0 0;
#X restore 2047 55 graph;
#N canvas 0 50 450 250 (subpatch) 0;
#X array amb2R 2.1609e+006 float 2;
#X coords 0 1 2.1609e+006 -1 200 140 1 0 0;
#X restore 2045 210 graph;
#X msg 1600 92 read -resize AMBDAY.L.wav amb1L;
#X obj 1606 419 soundfiler;
#X obj 1603 354 loadbang;
#X msg 1601 376 read -resize SHUTDOWN.L.wav SDL;
#X msg 1609 399 read -resize SHUTDOWN.R.wav SDR;
#N canvas 0 50 450 250 (subpatch) 0;
#X array SDL 253575 float 2;
#X coords 0 1 253575 -1 200 140 1 0 0;
#X restore 1838 374 graph;
#N canvas 0 50 450 250 (subpatch) 0;
#X array SDR 253575 float 0;
#X coords 0 1 253574 -1 200 140 1 0 0;
#X restore 2046 374 graph;
#X msg 1608 115 read -resize AMBDAY.R.wav amb1R;
#X obj 1609 136 soundfiler;
#X obj 1689 417 soundfiler;
#X obj 1562 458 s samplesizeSD;
#X obj 1594 293 soundfiler;
#X obj 1593 200 loadbang;
#X obj 1600 275 soundfiler;
#X msg 1591 231 read -resize AMBNIGHT.L.wav amb2L;
#X msg 1599 254 read -resize AMBNIGHT.R.wav amb2R;
#X obj 1543 314 s samplesizeAmb2;
#X obj 919 304 line~;
#X obj 891 161 bng 15 250 50 0 empty empty empty 17 7 0 10 -262144
-1 -1;
#X obj 1018 174 * 1000;
#X obj 908 363 *~;
#X msg 920 279 1 \$1;
#X obj 928 254 f;
#X msg 881 237 0;
#X obj 891 183 t b b;
#X text 499 356 AMBDAY;
#X text 746 358 AMBNIGHT;
#X text 922 423 SHUTDOWN;
#X obj 400 380 tabread4~ amb1L;
#X obj 517 380 tabread4~ amb1R;
#X obj 426 103 r samplesizeAmb1;
#X obj 13 40 s InitRoomtone;
#X obj 14 17 bng 15 250 50 0 empty empty empty 17 7 0 10 -262144 -1
-1;
#X obj 898 837 r InitRoomtone;
#X obj 122 45 s stopRoomtone;
#X obj 123 21 bng 15 250 50 0 empty empty empty 17 7 0 10 -262144 -1
-1;
#X obj 20 70 bng 15 250 50 0 empty empty empty 17 7 0 10 -262144 -1
-1;
#X obj 20 90 s Shutdown;
#X obj 769 101 r samplesizeAmb2;
#X msg 726 406 0;
#X obj 660 405 *~;
#X obj 778 407 *~;
#X obj 778 384 tabread4~ amb2R;
#X obj 659 384 tabread4~ amb2L;
#X msg 295 467 0 1000;
#X obj 292 510 line~;
#X obj 594 495 line~;
#X obj 429 544 *~;
#X obj 483 544 *~;
#X obj 643 524 *~;
#X obj 697 524 *~;
#X obj 296 425 r Shutdown;
#X obj 199 422 loadbang;
#X msg 727 434 1;
#X obj 728 454 r Shutdown;
#X obj 285 49 s reset;
#X obj 290 27 bng 15 250 50 0 empty empty empty 17 7 0 10 -262144 -1
-1;
#X obj 1018 133 r samplesizeSD;
#X obj 1018 155 / 44100;
#X obj 907 390 tabread4~ SDL;
#X obj 1008 389 tabread4~ SDR;
#X obj 893 129 r Shutdown;
#X msg 594 472 1 3500;
#X obj 433 127 / 44100;
#X obj 418 328 line~;
#X obj 430 154 * 1000;
#X msg 419 303 1 \$1;
#X obj 414 276 f;
#X msg 372 295 0;
#X obj 335 223 metro;
#X obj 335 245 t b b;
#X obj 427 176 t b f f;
#X obj 416 349 *~;
#X msg 261 468 1;
#X obj 556 477 0;
#X obj 400 210 - 1;
#X obj 768 126 / 44100;
#X obj 715 309 line~;
#X obj 765 153 * 1000;
#X msg 716 284 1 \$1;
#X obj 711 257 f;
#X msg 669 276 0;
#X obj 632 204 metro;
#X obj 632 226 t b b;
#X obj 762 175 t b f f;
#X obj 715 329 *~;
#X obj 704 207 - 1;
#N canvas 0 50 450 250 (subpatch) 0;
#X array AmbEvL 171873 float 2;
#X coords 0 1 171873 -1 200 140 1 0 0;
#X restore 2572 66 graph;
#N canvas 0 50 450 250 (subpatch) 0;
#X array AmbEvR 171873 float 2;
#X coords 0 1 171873 -1 200 140 1 0 0;
#X restore 2780 66 graph;
#X text 885 795 MIX FADE IN FADE OUT AMB;
#X text 148 504 CROSSFADE NIGHT DAY;
#X obj 2410 370 soundfiler;
#X obj 1574 480 loadbang;
#X obj 2493 368 soundfiler;
#X obj 2463 216 bng 15 250 50 0 empty empty empty 17 7 0 10 -262144
-1 -1;
#X obj 2463 236 random 6;
#X obj 2461 261 + 1;
#X obj 2289 138 bng 15 250 50 0 empty empty empty 17 7 0 10 -262144
-1 -1;
#X msg 2397 330 read -resize AMB_EVENT0\$1.L.wav AmbEvL;
#X obj 2367 409 s samplesizeAmbEv;
#X msg 2416 349 read -resize AMB_EVENT0\$1.R.wav AmbEvR;
#X obj 2462 307 s RndValueAmb;
#X obj 1199 356 line~;
#X obj 1171 213 bng 15 250 50 0 empty empty empty 17 7 0 10 -262144
-1 -1;
#X obj 1298 226 * 1000;
#X obj 1188 415 *~;
#X msg 1200 331 1 \$1;
#X obj 1208 306 f;
#X msg 1161 289 0;
#X obj 1171 235 t b b;
#X obj 1298 207 / 44100;
#X text 1202 475 Amb Event;
#X obj 1187 442 tabread4~ AmbEvL;
#X obj 1263 423 tabread4~ AmbEvR;
#X obj 1298 185 r samplesizeAmbEv;
#X obj 1176 164 delay;
#X obj 1176 76 t b b;
#X obj 1216 98 random 12;
#X obj 1216 118 + 3;
#X obj 1217 140 * 1000;
#X obj 2287 177 s metro10000;
#X obj 1175 54 r metro10000;
#X obj 1176 187 t b b;
#X msg 1322 131 stop;
#X msg 2264 79 stop;
#X obj 2285 116 r Shutdown;
#X obj 1181 463 *~ 0.7;
#X obj 1289 465 *~ 0.7;
#X obj 1322 109 r Reset;
#X obj 139 425 r Reset;
#X obj 2264 57 r Reset;
#X obj 723 809 r Reset;
#X obj 1418 148 - 1;
#X obj 1417 166 abs;
#X obj 1298 245 *;
#X obj 1417 105 random 200;
#X obj 1417 128 / 1000;
#X obj 2288 156 delay 25000;
#X connect 1 0 5 1;
#X connect 1 0 4 1;
#X connect 2 0 6 0;
#X connect 3 0 1 0;
#X connect 4 0 0 0;
#X connect 5 0 0 1;
#X connect 6 0 1 0;
#X connect 7 0 8 0;
#X connect 8 0 1 0;
#X connect 9 0 13 0;
#X connect 11 0 16 0;
#X connect 11 0 23 0;
#X connect 16 0 9 0;
#X connect 17 0 26 0;
#X connect 18 0 19 0;
#X connect 18 0 20 0;
#X connect 19 0 17 0;
#X connect 20 0 25 0;
#X connect 23 0 24 0;
#X connect 27 0 32 0;
#X connect 28 0 30 0;
#X connect 28 0 31 0;
#X connect 30 0 27 0;
#X connect 31 0 29 0;
#X connect 33 0 36 0;
#X connect 34 0 40 0;
#X connect 35 0 38 1;
#X connect 36 0 75 0;
#X connect 36 0 76 0;
#X connect 37 0 33 0;
#X connect 38 0 37 0;
#X connect 39 0 33 0;
#X connect 40 0 38 0;
#X connect 40 1 39 0;
#X connect 44 0 63 0;
#X connect 45 0 64 0;
#X connect 46 0 79 0;
#X connect 46 0 88 1;
#X connect 48 0 47 0;
#X connect 49 0 3 0;
#X connect 51 0 50 0;
#X connect 52 0 53 0;
#X connect 54 0 92 0;
#X connect 54 0 101 1;
#X connect 55 0 56 1;
#X connect 55 0 57 1;
#X connect 56 0 65 0;
#X connect 57 0 66 0;
#X connect 58 0 57 0;
#X connect 59 0 56 0;
#X connect 60 0 61 0;
#X connect 61 0 63 1;
#X connect 61 0 64 1;
#X connect 62 0 65 1;
#X connect 62 0 66 1;
#X connect 63 0 4 0;
#X connect 64 0 5 0;
#X connect 65 0 4 0;
#X connect 66 0 5 0;
#X connect 67 0 60 0;
#X connect 67 0 78 0;
#X connect 68 0 89 0;
#X connect 68 0 90 0;
#X connect 69 0 56 1;
#X connect 69 0 57 1;
#X connect 70 0 69 0;
#X connect 72 0 71 0;
#X connect 73 0 36 1;
#X connect 73 0 74 0;
#X connect 74 0 35 0;
#X connect 75 0 0 0;
#X connect 76 0 0 1;
#X connect 77 0 34 0;
#X connect 78 0 62 0;
#X connect 79 0 81 0;
#X connect 80 0 88 0;
#X connect 81 0 87 0;
#X connect 82 0 80 0;
#X connect 83 0 82 0;
#X connect 84 0 80 0;
#X connect 85 0 86 0;
#X connect 86 0 83 0;
#X connect 86 1 84 0;
#X connect 87 0 85 0;
#X connect 87 1 91 0;
#X connect 87 2 83 1;
#X connect 88 0 44 0;
#X connect 88 0 45 0;
#X connect 89 0 61 0;
#X connect 90 0 62 0;
#X connect 91 0 85 1;
#X connect 92 0 94 0;
#X connect 93 0 101 0;
#X connect 94 0 100 0;
#X connect 95 0 93 0;
#X connect 96 0 95 0;
#X connect 97 0 93 0;
#X connect 98 0 99 0;
#X connect 99 0 96 0;
#X connect 99 1 97 0;
#X connect 100 0 98 0;
#X connect 100 1 102 0;
#X connect 100 2 96 1;
#X connect 101 0 59 0;
#X connect 101 0 58 0;
#X connect 102 0 98 1;
#X connect 107 0 115 0;
#X connect 110 0 111 0;
#X connect 111 0 112 0;
#X connect 112 0 114 0;
#X connect 112 0 116 0;
#X connect 112 0 117 0;
#X connect 113 0 153 0;
#X connect 114 0 107 0;
#X connect 116 0 109 0;
#X connect 118 0 121 0;
#X connect 119 0 125 0;
#X connect 121 0 128 0;
#X connect 121 0 129 0;
#X connect 122 0 118 0;
#X connect 123 0 122 0;
#X connect 124 0 118 0;
#X connect 125 0 123 0;
#X connect 125 1 124 0;
#X connect 126 0 120 0;
#X connect 128 0 142 0;
#X connect 129 0 143 0;
#X connect 130 0 121 1;
#X connect 130 0 126 0;
#X connect 131 0 138 0;
#X connect 132 0 131 0;
#X connect 132 1 133 0;
#X connect 133 0 134 0;
#X connect 134 0 135 0;
#X connect 135 0 131 1;
#X connect 137 0 132 0;
#X connect 137 0 151 0;
#X connect 138 0 119 0;
#X connect 138 1 113 0;
#X connect 139 0 131 0;
#X connect 140 0 153 0;
#X connect 141 0 113 0;
#X connect 142 0 4 0;
#X connect 143 0 5 0;
#X connect 144 0 139 0;
#X connect 145 0 89 0;
#X connect 145 0 90 0;
#X connect 146 0 140 0;
#X connect 147 0 6 0;
#X connect 148 0 149 0;
#X connect 149 0 150 1;
#X connect 150 0 123 1;
#X connect 151 0 152 0;
#X connect 152 0 148 0;
#X connect 153 0 110 0;
#X connect 153 0 136 0;
